<svg xmlns="http://www.w3.org/2000/svg" width="147" height="158" viewBox="0 0 147 158" fill="none">
<path d="M144.613 17.6924C143.193 15.8208 141.13 14.612 138.808 14.2936C137.29 14.0856 135.76 14.2741 134.359 14.833C134.086 14.768 133.827 14.7225 133.574 14.6835L113.947 11.9801L112.727 7.42444C112.033 4.83795 110.379 2.68037 108.064 1.34163C105.748 0.00939056 103.057 -0.34804 100.475 0.347324L76.4765 6.82006L36.321 1.30264C32.0855 0.717752 28.1549 3.70067 27.5712 7.95084L25.5994 22.3195L24.8276 22.0986C22.259 21.3512 19.5608 21.6567 17.2193 22.9499C14.8778 24.2432 13.185 26.3682 12.4391 28.9417L0.394346 70.6506C-1.13638 75.96 1.92507 81.523 7.22423 83.0632L16.895 85.8641L10.2986 133.974C10.0197 136.034 10.5516 138.081 11.8034 139.739C13.0552 141.396 14.8843 142.462 16.9339 142.741L114.193 156.122C114.459 156.161 114.725 156.187 114.991 156.2C116.191 157.116 117.605 157.708 119.123 157.916C119.525 157.968 119.927 158 120.336 158C122.256 158 124.091 157.383 125.628 156.206C127.496 154.783 128.703 152.717 129.021 150.39L146.313 24.2107C146.63 21.8841 146.027 19.5641 144.607 17.6924H144.613Z" fill="white"/>
<path d="M133.005 18.8654L35.7453 5.48454C33.7994 5.21809 32.0093 6.57632 31.7433 8.52594L14.4708 134.543C14.2049 136.492 15.5605 138.286 17.5063 138.553L114.766 151.933C117.574 152.317 120.162 150.354 120.545 147.54L137.383 24.6558C137.765 21.8418 135.807 19.2488 132.998 18.8654H133.005Z" fill="url(#paint0_linear_4983_18505)"/>
<path d="M138.231 18.4689C135.727 18.1245 133.425 19.8792 133.081 22.3812L115.789 148.561C115.445 151.069 117.197 153.376 119.694 153.72C122.191 154.065 124.5 152.31 124.844 149.808L142.136 23.6289C142.48 21.1204 140.728 18.8134 138.231 18.4689Z" fill="url(#paint1_linear_4983_18505)"/>
<path d="M101.565 4.44099L59.7197 15.7223C56.6342 16.5542 54.8059 19.7347 55.6361 22.8263L66.8955 64.7531C67.7258 67.8446 70.9001 69.6765 73.9857 68.8446L115.831 57.5633C118.917 56.7315 120.745 53.5509 119.915 50.4593L108.655 8.53256C107.825 5.441 104.651 3.60914 101.565 4.44099Z" fill="url(#paint2_linear_4983_18505)"/>
<path d="M16.4904 30.1155L4.44425 71.8222C3.55601 74.8976 5.32415 78.1121 8.39352 79.0021L50.0193 91.0716C53.0886 91.9616 56.2969 90.19 57.1852 87.1147L69.2313 45.408C70.1196 42.3327 68.3514 39.1181 65.2821 38.2282L23.6563 26.1586C20.5869 25.2686 17.3786 27.0402 16.4904 30.1155Z" fill="url(#paint3_linear_4983_18505)"/>
<path d="M59.6317 111.206L67.1714 68.4499C67.7266 65.3012 70.7329 63.1937 73.8754 63.75L116.548 71.3044C119.691 71.8607 121.794 74.8728 121.239 78.0215L113.699 120.777C113.144 123.926 110.138 126.033 106.995 125.477L64.3224 117.923C61.1799 117.366 59.0764 114.354 59.6317 111.206Z" fill="url(#paint4_linear_4983_18505)"/>
<path d="M38.8593 60.0918L36.3906 56.4219L32.7978 58.8482L35.2665 62.518L38.8593 60.0918Z" fill="white"/>
<path d="M35.2298 62.7006L32.6094 58.8079L36.4232 56.2344L39.0436 60.1271L35.2298 62.7006ZM32.9856 58.8794L35.3011 62.3237L38.6739 60.0491L36.3584 56.6048L32.9921 58.8794H32.9856Z" fill="white"/>
<path d="M52.0311 43.5908C43.1841 40.9783 40.4145 38.0473 36.1596 36.6826C33.2149 35.7403 29.3946 35.8118 28.5254 36.2602C27.1374 36.975 26.3201 40.3414 26.3201 40.3414L37.7617 43.9937C30.374 45.9758 21.8642 49.4916 19.2049 59.1422C16.8115 67.8245 19.9962 77.1372 36.2439 80.9195C36.2439 80.9195 47.3806 79.1908 50.5653 78.5604C47.2898 77.5791 41.796 76.3054 34.7262 73.9723C29.6475 72.2891 20.8978 65.4265 22.7593 57.446C26.158 42.8824 46.9525 47.0286 50.2085 48.4778L52.0311 43.5973V43.5908Z" fill="white"/>
<path d="M32.6369 80.2123C17.0378 75.1953 17.3621 64.8168 18.9447 59.0784C21.5522 49.6098 29.7117 45.99 36.8205 43.9819L26.0016 40.5245L26.06 40.2841C26.0924 40.1411 26.9227 36.7878 28.4015 36.0274C29.3939 35.514 33.2985 35.4945 36.2367 36.4303C37.9685 36.9892 39.4279 37.7821 41.1273 38.6984C43.6309 40.0566 46.8026 41.7723 52.1083 43.3385L52.3807 43.4165L50.357 48.8299L50.0976 48.7129C49.903 48.6285 49.65 48.531 49.3387 48.4335C46.2578 47.4392 35.893 45.4961 28.9399 49.4408C25.846 51.1955 23.8547 53.9054 23.0115 57.4992C21.2343 65.1092 29.6144 71.9979 34.8033 73.7136C39.5641 75.2863 43.579 76.3715 46.7378 77.2164C48.2555 77.6258 49.5657 77.9767 50.6359 78.3017L51.6607 78.6071L50.61 78.8151C47.4512 79.4454 36.3859 81.1611 36.2757 81.1806H36.1719C34.933 80.8882 33.7461 80.5632 32.6305 80.1993L32.6369 80.2123ZM38.7015 44.0209L37.8258 44.2548C30.6587 46.1784 22.097 49.6163 19.4572 59.2149C17.9264 64.7713 17.6281 74.8183 32.7991 79.6989C33.8823 80.0498 35.0433 80.3683 36.2497 80.6477C36.9891 80.5307 45.5184 79.205 49.4165 78.5031C48.5863 78.2692 47.6393 78.0157 46.6015 77.7363C43.4363 76.8849 39.4084 75.7997 34.6412 74.2205C29.6014 72.5503 20.5598 65.6876 22.4991 57.3757C23.3748 53.6325 25.4503 50.8055 28.6804 48.9729C35.7957 44.9372 46.3616 46.9128 49.5008 47.9201C49.7084 47.9851 49.89 48.0501 50.0522 48.1151L51.6802 43.7609C46.4848 42.2012 43.352 40.5051 40.8678 39.1598C39.1944 38.2565 37.7545 37.4701 36.094 36.9372C33.1688 36.0014 29.4133 36.0924 28.6415 36.4888C27.6751 36.9892 26.9162 39.1143 26.6308 40.1541L38.695 44.0079L38.7015 44.0209Z" fill="white"/>
<path d="M85.7117 15.3164C85.7117 15.3164 81.1066 20.9053 81.846 22.7705C83.4481 26.8062 92.2757 52.1902 92.6 58.104C95.0712 56.6353 95.389 49.3892 92.7362 40.473C90.1028 31.6347 85.7117 15.3164 85.7117 15.3164Z" fill="white"/>
<path d="M92.2704 58.7136L92.2379 58.1222C91.9136 52.1888 83.0536 26.7918 81.5099 22.8991C80.7121 20.8974 84.9475 15.6725 85.434 15.0876L85.8751 14.5547L86.0567 15.2241C86.1021 15.3865 90.4737 31.6398 93.0746 40.3741C95.695 49.1669 95.5718 56.7509 92.7828 58.4146L92.2769 58.7136H92.2704ZM85.5507 16.0949C83.8644 18.246 81.7369 21.5278 82.178 22.6456C83.6763 26.4214 92.0174 50.3432 92.893 57.4008C94.6183 55.4512 94.9037 49.0239 92.3936 40.5821C90.0975 32.8616 86.4134 19.2793 85.5507 16.0949Z" fill="white"/>
<path d="M110.229 81.582C110.229 81.582 106.5 86.729 106.519 87.8273C106.532 88.9191 109.166 90.9987 108.64 92.2595C107.259 95.6063 97.9253 96.6591 87.2945 94.8589C76.9946 93.1173 70.2879 90.7842 75.5482 81.0816C73.1418 80.8542 69.2307 85.8907 69.6847 91.7071C70.1842 98.1213 80.0431 101.104 90.9851 102.04C102.731 103.041 108.608 99.9149 110.34 93.3577C111.715 88.1587 111.423 83.1157 110.229 81.5885V81.582Z" fill="white"/>
<path d="M84.1632 101.4C74.8816 99.678 69.7835 96.3376 69.4268 91.7235C69.1154 87.7008 70.8667 84.0355 72.7412 82.1899C73.7206 81.2281 74.7259 80.7407 75.5756 80.8186L75.9648 80.8576L75.7767 81.2021C73.9541 84.5619 73.5195 87.1289 74.4405 89.0655C75.8934 92.1134 80.6996 93.3872 85.6745 94.31C86.2193 94.4075 86.7706 94.5115 87.3414 94.6024C97.8554 96.3831 107.105 95.3108 108.408 92.1589C108.655 91.5675 107.941 90.6122 107.312 89.7674C106.754 89.02 106.274 88.3767 106.268 87.8243C106.248 86.674 109.641 81.9559 110.03 81.423L110.231 81.1436L110.438 81.4165C111.632 82.9502 112.028 87.9737 110.594 93.4132C108.759 100.36 102.344 103.259 90.9671 102.29C88.5413 102.082 86.2517 101.784 84.1697 101.394L84.1632 101.4ZM75.1086 81.358C74.4989 81.462 73.7919 81.8844 73.1044 82.5603C71.3142 84.328 69.6408 87.8308 69.9456 91.6845C70.3737 97.1825 77.969 99.7235 84.2605 100.893C86.3296 101.277 88.5997 101.576 91.0061 101.784C102.084 102.732 108.33 99.9509 110.088 93.2897C111.359 88.4806 111.178 83.7886 110.218 82.0404C108.797 84.029 106.761 87.1289 106.774 87.8243C106.774 88.2077 107.254 88.8446 107.714 89.462C108.46 90.4628 109.232 91.4961 108.875 92.3604C107.468 95.7787 98.1667 96.9615 87.2506 95.1159C86.6798 95.0184 86.122 94.9209 85.5772 94.8169C80.4661 93.8681 75.5237 92.5424 73.967 89.2865C73.0071 87.2719 73.3768 84.6724 75.1021 81.3515L75.1086 81.358Z" fill="white"/>
<path d="M91.9074 110.003L89.1602 106.705L85.9334 109.404L88.6806 112.701L91.9074 110.003Z" fill="white"/>
<path d="M88.6369 113.063L85.5625 109.372L89.1882 106.344L92.2627 110.042L88.6369 113.07V113.063ZM86.2889 109.437L88.7018 112.336L91.5362 109.97L89.1234 107.072L86.2889 109.437Z" fill="white"/>
<defs>
<linearGradient id="paint0_linear_4983_18505" x1="14.4384" y1="78.7187" x2="137.435" y2="78.7187" gradientUnits="userSpaceOnUse">
<stop stop-color="#F2BF27"/>
<stop offset="1" stop-color="#D17B0E"/>
</linearGradient>
<linearGradient id="paint1_linear_4983_18505" x1="115.75" y1="86.1012" x2="142.181" y2="86.1012" gradientUnits="userSpaceOnUse">
<stop stop-color="#F2BF27"/>
<stop offset="1" stop-color="#D17B0E"/>
</linearGradient>
<linearGradient id="paint2_linear_4983_18505" x1="55.4316" y1="36.6453" x2="120.111" y2="36.6453" gradientUnits="userSpaceOnUse">
<stop stop-color="#FF3030"/>
<stop offset="1" stop-color="#CC0909"/>
</linearGradient>
<linearGradient id="paint3_linear_4983_18505" x1="4.22176" y1="58.6185" x2="69.4656" y2="58.6185" gradientUnits="userSpaceOnUse">
<stop stop-color="#3BAC64"/>
<stop offset="1" stop-color="#2B8E4F"/>
</linearGradient>
<linearGradient id="paint4_linear_4983_18505" x1="59.5454" y1="94.6109" x2="121.326" y2="94.6109" gradientUnits="userSpaceOnUse">
<stop stop-color="#905DF5"/>
<stop offset="1" stop-color="#813BEC"/>
</linearGradient>
</defs>
</svg>