<svg width="176" height="150" viewBox="0 0 176 150" fill="none" xmlns="http://www.w3.org/2000/svg">
<path d="M165.074 0C159.552 0 155.062 4.48998 155.062 10.0115V26.7908H153.482V21.2335C153.482 16.499 149.63 12.653 144.902 12.653C141.712 12.653 138.921 14.4061 137.442 16.994C135.964 14.4001 133.173 12.653 129.983 12.653C126.602 12.653 123.668 14.6208 122.273 17.471C120.878 14.6208 117.944 12.653 114.557 12.653C109.823 12.653 105.977 16.505 105.977 21.2335V26.7908H20.029V10.0115C20.029 4.48998 15.5331 0 10.0115 0C4.48998 0 0 4.48998 0 10.0115V139.988C0 145.51 4.48998 150 10.0115 150C15.5331 150 20.0231 145.51 20.0231 139.988V122.75H90.8491V127.806C90.8491 132.541 94.7011 136.387 99.4296 136.387C102.81 136.387 105.744 134.419 107.145 131.569C108.541 134.419 111.474 136.387 114.861 136.387C118.051 136.387 120.842 134.634 122.321 132.046C123.799 134.64 126.59 136.387 129.78 136.387C134.515 136.387 138.361 132.535 138.361 127.806V122.75H155.05V139.988C155.05 145.51 159.54 150 165.062 150C170.584 150 175.074 145.51 175.074 139.988V10.0115C175.074 4.48998 170.584 0 165.062 0H165.074ZM168.526 139.988C168.526 141.891 166.976 143.441 165.074 143.441C163.172 143.441 161.621 141.891 161.621 139.988V119.471C161.621 118.105 160.787 116.936 159.594 116.441C160.781 115.946 161.621 114.778 161.621 113.412V81.088C161.621 79.7225 160.787 78.5538 159.594 78.0589C160.781 77.564 161.621 76.3953 161.621 75.0298V36.1345C161.621 34.769 160.781 33.6003 159.594 33.1054C160.781 32.6105 161.621 31.4418 161.621 30.0763V10.0115C161.621 8.1094 163.172 6.55907 165.074 6.55907C166.976 6.55907 168.526 8.1094 168.526 10.0115V139.988ZM131.808 119.476V127.812C131.808 128.927 130.901 129.834 129.786 129.834C128.671 129.834 127.765 128.927 127.765 127.812V119.476C127.765 118.111 126.93 116.942 125.737 116.447C126.924 115.952 127.765 114.784 127.765 113.418V104.581C127.765 103.466 128.671 102.56 129.786 102.56C130.901 102.56 131.808 103.466 131.808 104.581V113.418C131.808 114.784 132.642 115.952 133.835 116.447C132.648 116.942 131.808 118.111 131.808 119.476ZM110.818 116.441C112.005 115.946 112.846 114.778 112.846 113.412V104.575C112.846 103.46 113.752 102.554 114.867 102.554C115.982 102.554 116.889 103.46 116.889 104.575V113.412C116.889 114.778 117.723 115.946 118.916 116.441C117.729 116.936 116.889 118.105 116.889 119.471V127.806C116.889 128.922 115.982 129.828 114.867 129.828C113.752 129.828 112.846 128.922 112.846 127.806V119.471C112.846 118.105 112.011 116.936 110.818 116.441ZM101.463 119.476V127.812C101.463 128.927 100.557 129.834 99.4415 129.834C98.3264 129.834 97.4201 128.927 97.4201 127.812V119.476C97.4201 118.111 96.5853 116.942 95.3927 116.447C96.5793 115.952 97.4201 114.784 97.4201 113.418V104.581C97.4201 103.466 98.3264 102.56 99.4415 102.56C100.557 102.56 101.463 103.466 101.463 104.581V113.418C101.463 114.784 102.298 115.952 103.49 116.447C102.304 116.942 101.463 118.111 101.463 119.476ZM13.4699 139.988C13.4699 141.891 11.9196 143.441 10.0175 143.441C8.11536 143.441 6.56503 141.891 6.56503 139.988V10.0115C6.56503 8.1094 8.11536 6.55907 10.0175 6.55907C11.9196 6.55907 13.4699 8.1094 13.4699 10.0115V30.0704C13.4699 31.4358 14.3047 32.6045 15.4973 33.0995C14.3107 33.5944 13.4699 34.7631 13.4699 36.1286V75.0179C13.4699 76.3834 14.3047 77.558 15.4973 78.047C14.3107 78.5419 13.4699 79.7106 13.4699 81.0761V113.4C13.4699 114.766 14.3047 115.935 15.4973 116.429C14.3107 116.924 13.4699 118.093 13.4699 119.459V139.977V139.988ZM112.524 30.0763V21.2395C112.524 20.1244 113.43 19.2181 114.545 19.2181C115.66 19.2181 116.567 20.1244 116.567 21.2395V30.0763C116.567 31.4418 117.407 32.6105 118.594 33.1054C117.407 33.6003 116.567 34.769 116.567 36.1345V44.4705C116.567 45.5855 115.66 46.4919 114.545 46.4919C113.43 46.4919 112.524 45.5855 112.524 44.4705V36.1345C112.524 34.769 111.683 33.6003 110.496 33.1054C111.683 32.6105 112.524 31.4418 112.524 30.0763ZM134.026 33.1054C132.839 33.6003 131.998 34.769 131.998 36.1345V44.4705C131.998 45.5855 131.092 46.4919 129.977 46.4919C128.862 46.4919 127.956 45.5855 127.956 44.4705V36.1345C127.956 34.769 127.115 33.6003 125.928 33.1054C127.115 32.6105 127.956 31.4418 127.956 30.0763V21.2395C127.956 20.1244 128.862 19.2181 129.977 19.2181C131.092 19.2181 131.998 20.1244 131.998 21.2395V30.0763C131.998 31.4418 132.839 32.6105 134.026 33.1054ZM142.874 30.0763V21.2395C142.874 20.1244 143.781 19.2181 144.896 19.2181C146.011 19.2181 146.917 20.1244 146.917 21.2395V30.0763C146.917 31.4418 147.758 32.6105 148.945 33.1054C147.758 33.6003 146.917 34.769 146.917 36.1345V44.4705C146.917 45.5855 146.011 46.4919 144.896 46.4919C143.781 46.4919 142.874 45.5855 142.874 44.4705V36.1345C142.874 34.769 142.034 33.6003 140.847 33.1054C142.034 32.6105 142.874 31.4418 142.874 30.0763ZM129.786 95.989C126.596 95.989 123.805 97.7421 122.327 100.33C120.848 97.7361 118.057 95.989 114.867 95.989C111.486 95.989 108.553 97.9567 107.151 100.807C105.756 97.9567 102.822 95.989 99.4415 95.989C94.707 95.989 90.861 99.841 90.861 104.569V110.127H20.029V84.3616H29.2356V89.418C29.2356 94.1525 33.0875 97.9985 37.816 97.9985C41.1969 97.9985 44.1306 96.0308 45.5319 93.1806C46.9272 96.0308 49.8609 97.9985 53.2477 97.9985C56.4378 97.9985 59.2284 96.2454 60.7072 93.6576C62.186 96.2514 64.9765 97.9985 68.1666 97.9985C72.9011 97.9985 76.7471 94.1465 76.7471 89.418V84.3616H155.056V110.127H138.367V104.569C138.367 99.835 134.515 95.989 129.786 95.989ZM114.551 53.051C117.932 53.051 120.866 51.0832 122.267 48.233C123.662 51.0832 126.596 53.051 129.983 53.051C133.173 53.051 135.964 51.2979 137.442 48.71C138.921 51.3039 141.712 53.051 144.902 53.051C149.636 53.051 153.482 49.199 153.482 44.4705V39.4141H155.062V71.7443H76.7531V66.187C76.7531 61.4525 72.9011 57.6065 68.1726 57.6065C64.9825 57.6065 62.1919 59.3596 60.7132 61.9474C59.2344 59.3536 56.4438 57.6065 53.2537 57.6065C49.8728 57.6065 46.9391 59.5743 45.5378 62.4245C44.1426 59.5743 41.2089 57.6065 37.822 57.6065C33.0875 57.6065 29.2415 61.4585 29.2415 66.187V71.7443H20.035V39.4141H105.971V44.4705C105.971 49.205 109.823 53.051 114.551 53.051ZM55.2691 81.088V89.424C55.2691 90.539 54.3628 91.4454 53.2477 91.4454C52.1327 91.4454 51.2263 90.539 51.2263 89.424V81.088C51.2263 79.7225 50.3916 78.5538 49.199 78.0589C50.3856 77.564 51.2263 76.3953 51.2263 75.0298V66.193C51.2263 65.0779 52.1327 64.1716 53.2477 64.1716C54.3628 64.1716 55.2691 65.0779 55.2691 66.193V75.0298C55.2691 76.3953 56.1039 77.57 57.2965 78.0589C56.1099 78.5538 55.2691 79.7225 55.2691 81.088ZM35.7946 75.0238V66.187C35.7946 65.072 36.701 64.1656 37.816 64.1656C38.9311 64.1656 39.8374 65.072 39.8374 66.187V75.0238C39.8374 76.3893 40.6722 77.564 41.8648 78.0529C40.6782 78.5479 39.8374 79.7166 39.8374 81.082V89.418C39.8374 90.5331 38.9311 91.4394 37.816 91.4394C36.701 91.4394 35.7946 90.5331 35.7946 89.418V81.082C35.7946 79.7166 34.9599 78.5479 33.7673 78.0529C34.9539 77.558 35.7946 76.3893 35.7946 75.0238ZM70.188 81.088V89.424C70.188 90.539 69.2817 91.4454 68.1666 91.4454C67.0516 91.4454 66.1453 90.539 66.1453 89.424V81.088C66.1453 79.7225 65.3105 78.5538 64.1179 78.0589C65.3045 77.564 66.1453 76.3953 66.1453 75.0298V66.193C66.1453 65.0779 67.0516 64.1716 68.1666 64.1716C69.2817 64.1716 70.188 65.0779 70.188 66.193V75.0298C70.188 76.3953 71.0228 77.57 72.2154 78.0589C71.0288 78.5538 70.188 79.7225 70.188 81.088Z" fill="white"/>
<path d="M163.334 75.0234H10.293V81.0816H163.334V75.0234Z" fill="url(#paint0_linear_2719_78161)"/>
<path d="M68.1681 60.8828C65.2404 60.8828 62.8672 63.256 62.8672 66.1837V89.4148C62.8672 92.3425 65.2404 94.7157 68.1681 94.7157C71.0958 94.7157 73.469 92.3425 73.469 89.4148V66.1837C73.469 63.256 71.0958 60.8828 68.1681 60.8828Z" fill="url(#paint1_linear_2719_78161)"/>
<path d="M37.8165 60.8828C34.8888 60.8828 32.5156 63.256 32.5156 66.1837V89.4148C32.5156 92.3425 34.8888 94.7157 37.8165 94.7157C40.7443 94.7157 43.1175 92.3425 43.1175 89.4148V66.1837C43.1175 63.256 40.7443 60.8828 37.8165 60.8828Z" fill="url(#paint2_linear_2719_78161)"/>
<path d="M53.2501 60.8828C50.3224 60.8828 47.9492 63.256 47.9492 66.1837V89.4148C47.9492 92.3425 50.3224 94.7157 53.2501 94.7157C56.1779 94.7157 58.5511 92.3425 58.5511 89.4148V66.1837C58.5511 63.256 56.1779 60.8828 53.2501 60.8828Z" fill="url(#paint3_linear_2719_78161)"/>
<path d="M163.334 113.41H10.293V119.468H163.334V113.41Z" fill="url(#paint4_linear_2719_78161)"/>
<path d="M129.791 99.2656H129.785C126.858 99.2656 124.484 101.639 124.484 104.567V127.804C124.484 130.731 126.858 133.104 129.785 133.104H129.791C132.719 133.104 135.092 130.731 135.092 127.804V104.567C135.092 101.639 132.719 99.2656 129.791 99.2656Z" fill="url(#paint5_linear_2719_78161)"/>
<path d="M99.4415 99.2656C96.5138 99.2656 94.1406 101.639 94.1406 104.567V127.798C94.1406 130.725 96.5138 133.099 99.4415 133.099C102.369 133.099 104.742 130.725 104.742 127.798V104.567C104.742 101.639 102.369 99.2656 99.4415 99.2656Z" fill="url(#paint6_linear_2719_78161)"/>
<path d="M114.869 99.2656H114.863C111.936 99.2656 109.562 101.639 109.562 104.567V127.804C109.562 130.731 111.936 133.104 114.863 133.104H114.869C117.797 133.104 120.17 130.731 120.17 127.804V104.567C120.17 101.639 117.797 99.2656 114.869 99.2656Z" fill="url(#paint7_linear_2719_78161)"/>
<path d="M163.334 30.0742H10.293V36.1324H163.334V30.0742Z" fill="url(#paint8_linear_2719_78161)"/>
<path d="M165.076 3.27734C161.355 3.27734 158.344 6.29452 158.344 10.0093V139.986C158.344 143.707 161.361 146.718 165.076 146.718C168.791 146.718 171.808 143.701 171.808 139.986V10.0093C171.808 6.28855 168.791 3.27734 165.076 3.27734Z" fill="url(#paint9_linear_2719_78161)"/>
<path d="M10.0132 3.27734C6.29246 3.27734 3.28125 6.29452 3.28125 10.0093V139.986C3.28125 143.707 6.29842 146.718 10.0132 146.718C13.7281 146.718 16.7452 143.701 16.7452 139.986V10.0093C16.7452 6.28855 13.7281 3.27734 10.0132 3.27734Z" fill="url(#paint10_linear_2719_78161)"/>
<path d="M144.895 15.9336C141.967 15.9336 139.594 18.3068 139.594 21.2345V44.4656C139.594 47.3933 141.967 49.7665 144.895 49.7665C147.822 49.7665 150.196 47.3933 150.196 44.4656V21.2345C150.196 18.3068 147.822 15.9336 144.895 15.9336Z" fill="url(#paint11_linear_2719_78161)"/>
<path d="M114.553 15.9336H114.547C111.619 15.9336 109.246 18.3069 109.246 21.2345V44.4715C109.246 47.3991 111.619 49.7724 114.547 49.7724H114.553C117.481 49.7724 119.854 47.3991 119.854 44.4715V21.2345C119.854 18.3069 117.481 15.9336 114.553 15.9336Z" fill="url(#paint12_linear_2719_78161)"/>
<path d="M129.979 15.9336H129.973C127.045 15.9336 124.672 18.3069 124.672 21.2345V44.4715C124.672 47.3991 127.045 49.7724 129.973 49.7724H129.979C132.906 49.7724 135.28 47.3991 135.28 44.4715V21.2345C135.28 18.3069 132.906 15.9336 129.979 15.9336Z" fill="url(#paint13_linear_2719_78161)"/>
<defs>
<linearGradient id="paint0_linear_2719_78161" x1="10.293" y1="78.0585" x2="163.334" y2="78.0585" gradientUnits="userSpaceOnUse">
<stop stop-color="#F2BF27"/>
<stop offset="1" stop-color="#D17B0E"/>
</linearGradient>
<linearGradient id="paint1_linear_2719_78161" x1="62.8612" y1="77.7993" x2="73.469" y2="77.7993" gradientUnits="userSpaceOnUse">
<stop stop-color="#FF3030"/>
<stop offset="1" stop-color="#CC0909"/>
</linearGradient>
<linearGradient id="paint2_linear_2719_78161" x1="32.5156" y1="-0.00326037" x2="43.1234" y2="-0.00326037" gradientUnits="userSpaceOnUse">
<stop stop-color="#FF3030"/>
<stop offset="1" stop-color="#CC0909"/>
</linearGradient>
<linearGradient id="paint3_linear_2719_78161" x1="47.9433" y1="77.7993" x2="58.5511" y2="77.7993" gradientUnits="userSpaceOnUse">
<stop stop-color="#3BAC64"/>
<stop offset="1" stop-color="#2B8E4F"/>
</linearGradient>
<linearGradient id="paint4_linear_2719_78161" x1="0.001189" y1="116.439" x2="0.597468" y2="116.439" gradientUnits="userSpaceOnUse">
<stop stop-color="#F2BF27"/>
<stop offset="1" stop-color="#D17B0E"/>
</linearGradient>
<linearGradient id="paint5_linear_2719_78161" x1="124.484" y1="116.188" x2="135.086" y2="116.188" gradientUnits="userSpaceOnUse">
<stop stop-color="#FF3030"/>
<stop offset="1" stop-color="#CC0909"/>
</linearGradient>
<linearGradient id="paint6_linear_2719_78161" x1="94.1347" y1="116.188" x2="104.742" y2="116.188" gradientUnits="userSpaceOnUse">
<stop stop-color="#FF3030"/>
<stop offset="1" stop-color="#CC0909"/>
</linearGradient>
<linearGradient id="paint7_linear_2719_78161" x1="109.562" y1="116.188" x2="120.17" y2="116.188" gradientUnits="userSpaceOnUse">
<stop stop-color="#3BAC64"/>
<stop offset="1" stop-color="#2B8E4F"/>
</linearGradient>
<linearGradient id="paint8_linear_2719_78161" x1="0.001189" y1="33.1033" x2="0.597468" y2="33.1033" gradientUnits="userSpaceOnUse">
<stop stop-color="#F2BF27"/>
<stop offset="1" stop-color="#D17B0E"/>
</linearGradient>
<linearGradient id="paint9_linear_2719_78161" x1="158.344" y1="74.9978" x2="171.808" y2="74.9978" gradientUnits="userSpaceOnUse">
<stop stop-color="#F2BF27"/>
<stop offset="1" stop-color="#D17B0E"/>
</linearGradient>
<linearGradient id="paint10_linear_2719_78161" x1="3.28125" y1="74.9978" x2="16.7512" y2="74.9978" gradientUnits="userSpaceOnUse">
<stop stop-color="#F2BF27"/>
<stop offset="1" stop-color="#D17B0E"/>
</linearGradient>
<linearGradient id="paint11_linear_2719_78161" x1="139.594" y1="32.856" x2="150.196" y2="32.856" gradientUnits="userSpaceOnUse">
<stop stop-color="#FF3030"/>
<stop offset="1" stop-color="#CC0909"/>
</linearGradient>
<linearGradient id="paint12_linear_2719_78161" x1="109.246" y1="32.856" x2="119.854" y2="32.856" gradientUnits="userSpaceOnUse">
<stop stop-color="#FF3030"/>
<stop offset="1" stop-color="#CC0909"/>
</linearGradient>
<linearGradient id="paint13_linear_2719_78161" x1="124.672" y1="32.856" x2="135.28" y2="32.856" gradientUnits="userSpaceOnUse">
<stop stop-color="#3BAC64"/>
<stop offset="1" stop-color="#2B8E4F"/>
</linearGradient>
</defs>
</svg>
