<svg width="162" height="166" viewBox="0 0 162 166" fill="none" xmlns="http://www.w3.org/2000/svg">
<path d="M141.47 44.1218C134.149 42.9057 129.302 35.9809 130.508 28.785C132.305 18.0337 145.779 13.9516 153.263 21.8524C162.124 30.9306 154.034 46.2055 141.47 44.1218Z" fill="url(#paint0_linear_2719_78235)" stroke="white" stroke-width="8" stroke-miterlimit="10"/>
<path d="M154.596 105.157C154.596 117.946 150.162 121.617 144.716 121.617C136.625 121.617 134.836 113.283 134.836 105.157C134.836 95.1806 140.826 82.6478 143.479 77.5665C144.226 76.1335 144.716 75.3047 144.716 75.3047C144.716 75.3047 154.596 92.3379 154.596 105.157Z" fill="url(#paint1_linear_2719_78235)" stroke="white" stroke-width="8" stroke-miterlimit="10"/>
<path d="M141.47 44.1218C134.149 42.9057 129.302 35.9809 130.508 28.785C132.305 18.0337 145.779 13.9516 153.263 21.8524C162.124 30.9306 154.034 46.2055 141.47 44.1218Z" fill="url(#paint2_linear_2719_78235)"/>
<path d="M131.596 61.413L55.2082 154.581C44.3479 167.826 24.7432 169.801 11.4479 158.988C-1.87081 148.159 -3.85461 128.64 7.00572 115.394L83.3937 22.2266L131.596 61.413Z" fill="#C4EED3"/>
<path d="M109.92 76.4012C27.0206 177.539 55.8985 142.311 49.597 150.003C41.2728 160.181 26.2193 161.683 16.028 153.395C7.18258 146.199 4.8487 133.922 9.87432 124.186C10.6134 122.706 11.5236 121.312 12.6205 119.972L54.7627 68.5546C55.1983 69.182 55.6962 69.7552 56.2719 70.3052C58.528 72.3811 62.6745 71.9163 64.4872 69.5151C64.8139 69.0503 65.0629 68.5856 65.2807 68.0898L109.92 76.4089V76.4012Z" fill="url(#paint3_linear_2719_78235)"/>
<path d="M132.809 62.3969L82.1719 21.2352C78.5155 18.2686 77.0685 13.6055 78.0565 9.30657C80.087 0.538225 90.5817 -2.83898 97.3733 2.69158L148.011 43.8532C149.925 45.4102 151.224 47.4318 151.877 49.6084C155.386 60.9174 141.974 69.8484 132.809 62.3969Z" fill="#C4EED3"/>
<path d="M131.593 61.413L126.116 68.0822L83.3906 22.2266L131.593 61.413Z" fill="#51C279"/>
<path d="M83.0284 86.568C99.3766 85.6494 112.276 78.6654 111.84 70.9688C111.403 63.2722 97.7968 57.7775 81.4487 58.6961C65.1005 59.6147 52.2013 66.5987 52.6375 74.2953C53.0738 81.9919 66.6802 87.4865 83.0284 86.568Z" fill="#51C279"/>
<path d="M86.2041 53.2965C81.9253 52.5838 79.0936 48.5405 79.7937 44.3345C80.844 38.0526 88.7169 35.6668 93.0891 40.2834C98.2703 45.5893 93.5403 54.5126 86.1963 53.2965H86.2041Z" fill="url(#paint4_linear_2719_78235)"/>
<path d="M154.596 105.157C154.596 117.946 150.162 121.617 144.716 121.617C136.625 121.617 134.836 113.283 134.836 105.157C134.836 95.1806 140.826 82.6478 143.479 77.5665C144.226 76.1335 144.716 75.3047 144.716 75.3047C144.716 75.3047 154.596 92.3379 154.596 105.157Z" fill="url(#paint5_linear_2719_78235)"/>
<defs>
<linearGradient id="paint0_linear_2719_78235" x1="130.321" y1="31.0158" x2="156.998" y2="31.0158" gradientUnits="userSpaceOnUse">
<stop stop-color="#3BAC64"/>
<stop offset="1" stop-color="#2B8E4F"/>
</linearGradient>
<linearGradient id="paint1_linear_2719_78235" x1="134.844" y1="98.4649" x2="154.596" y2="98.4649" gradientUnits="userSpaceOnUse">
<stop stop-color="#3BAC64"/>
<stop offset="1" stop-color="#2B8E4F"/>
</linearGradient>
<linearGradient id="paint2_linear_2719_78235" x1="130.321" y1="31.0158" x2="156.998" y2="31.0158" gradientUnits="userSpaceOnUse">
<stop stop-color="#3BAC64"/>
<stop offset="1" stop-color="#2B8E4F"/>
</linearGradient>
<linearGradient id="paint3_linear_2719_78235" x1="7.26815" y1="113.411" x2="109.92" y2="113.411" gradientUnits="userSpaceOnUse">
<stop stop-color="#3BAC64"/>
<stop offset="1" stop-color="#2B8E4F"/>
</linearGradient>
<linearGradient id="paint4_linear_2719_78235" x1="79.6848" y1="45.6435" x2="95.2752" y2="45.6435" gradientUnits="userSpaceOnUse">
<stop stop-color="#3BAC64"/>
<stop offset="1" stop-color="#2B8E4F"/>
</linearGradient>
<linearGradient id="paint5_linear_2719_78235" x1="134.844" y1="98.4649" x2="154.596" y2="98.4649" gradientUnits="userSpaceOnUse">
<stop stop-color="#3BAC64"/>
<stop offset="1" stop-color="#2B8E4F"/>
</linearGradient>
</defs>
</svg>
